<?xml version="1.0" encoding="utf-8" ?>
<svg xmlns="http://www.w3.org/2000/svg" xmlns:xlink="http://www.w3.org/1999/xlink" width="344" height="324"
     viewBox="0 0 344 324">
    <path fill="#2C365A"
          d="M164.188 11.1554C247.685 8.46806 317.569 73.94 320.326 157.435C323.082 240.929 257.668 310.868 174.175 313.693C90.5852 316.521 20.5474 251.014 17.788 167.422C15.0285 83.8296 80.5936 13.8459 164.188 11.1554Z"/>
    <path fill="#FEFEFE"
          d="M162.304 18.1059C163.694 17.9267 167.635 17.9131 169.037 17.9401C183.413 18.2179 197.793 20.3516 211.51 24.6143C237.574 32.7437 260.797 48.0993 278.483 68.898C280.304 71.0747 287.763 79.2176 286.908 81.7834C285.625 82.7453 283.909 81.6216 283.097 80.5916C275.673 71.1704 267.966 62.3898 258.586 54.7381C229.326 30.7792 191.705 19.5062 154.091 23.4264C117.168 27.3198 83.3196 45.7697 60.039 74.6918C37.187 102.993 26.2791 139.093 29.6357 175.313C32.7367 207.591 46.7973 237.835 69.4779 261.011C72.9798 264.531 77.4926 268.287 81.3627 271.427C109.922 294.289 146.281 305.093 182.69 301.536C187.975 301.306 197.76 299.319 202.795 298.054C229.669 291.505 253.988 277.114 272.663 256.71C277.451 251.582 282.006 245.567 285.965 239.786C287.289 237.852 287.579 235.718 290.611 235.918C293.873 239.498 273.554 261.893 270.78 264.576C239.686 294.648 199.277 310.037 156.089 306.197C46.1801 296.424 -13.1956 171.784 49.5662 80.7067C76.5575 41.6392 115.825 21.7113 162.304 18.1059Z"/>
    <path fill="#FEFEFE"
          d="M208.91 55.5712C214.764 54.3126 222.521 59.0763 226.982 62.5421C241.442 73.7775 232.156 88.8581 227.382 102.269C225.664 107.092 224.095 112.014 223.266 117.07C221.808 125.807 223.74 135.585 219.243 143.651C217.202 147.336 212.545 148.802 208.726 149.838C204.534 150.268 200.967 147.249 199.801 143.399C195.783 130.128 211.191 120.854 212.893 108.43C215.631 94.3219 198.981 87.6898 196.836 76.2423C195.135 67.1637 199.003 57.2319 208.91 55.5712Z"/>
    <path fill="#FEFEFE"
          d="M102.332 185.049C104.122 184.903 105.811 184.764 107.59 185.113C110.97 185.798 113.939 187.801 115.84 190.679C117.821 193.651 118.299 196.257 118.89 199.623C121.506 214.514 103.994 218.96 102.407 233.593C100.837 248.059 118.852 257.199 115.846 271.839C115.24 274.788 113.711 276.822 111.209 278.446C104.61 281.356 96.3049 275.988 94.4081 269.271C92.0616 260.803 93.5264 252.911 91.7706 244.112C89.4953 232.709 83.4241 222.572 81.1723 211.452C79.2392 201.906 83.6698 194.917 91.3846 189.813C95.2797 187.236 97.5823 186.155 102.332 185.049Z"/>
    <path fill="#FEFEFE"
          d="M123.779 104.071C125.041 103.986 126.309 103.637 127.14 104.689C126.237 106.324 117.245 106.596 113.878 111.767C107.275 121.909 112.402 133.467 118.344 142.683C123.715 151.014 131.005 158.04 138.899 164.246C142.991 155.218 150.346 149.517 160.888 151.789C167.265 153.164 172.233 159.75 170.133 166.301C168.366 171.818 165.17 174.387 160.255 177.119C167.881 180.497 176.814 183.127 185.183 183.035C192.276 182.958 196.742 182.378 201.997 177.145C203.873 174.552 204.865 172.753 204.932 169.516C204.966 167.877 204.583 163.94 205.546 162.886C206.481 162.835 206.25 162.701 206.78 163.17C207.447 164.937 207.14 169.843 206.853 171.73C206.243 175.753 203.672 179.708 200.172 181.928C189.239 188.861 175.542 185.922 164.133 181.916C162.564 181.365 155.757 178.497 154.954 178.344L154.305 178.897C153.373 179.101 151.974 178.843 151.08 178.674C146.224 177.756 141.723 176.133 139.918 171.109C139.642 170.342 138.476 168.205 137.904 167.72C125.237 156.962 112.249 144.48 108.59 127.6C105.983 115.63 111.687 106.453 123.779 104.071Z"/>
    <path fill="#FEFEFE"
          d="M173.474 188.578C188.309 186.529 191.717 206.438 173.993 209.997C156.074 211.167 157.435 191.245 173.474 188.578Z"/>
    <path fill="#FEFEFE"
          d="M144.734 117.843C152 117.789 155.335 120.013 156.987 127.164C155.052 133.866 151.425 138.369 144.047 139.088C140.738 139.364 137.511 139.005 134.851 136.844C132.984 135.338 131.816 133.132 131.62 130.742C131.041 123.639 138.149 118.315 144.734 117.843Z"/>
    <path fill="#FEFEFE"
          d="M187.81 222.047C191.537 221.986 194.167 224.135 196.19 227.02C196.691 234.778 193.167 237.461 185.879 239.079C180.613 238.995 178.549 236.289 176.806 231.886C178.566 225.42 181.391 223.396 187.81 222.047Z"/>
    <path fill="#FEFEFE"
          d="M149.271 85.8494C154.43 85.9122 156.745 88.2986 157.947 93.1169C156.55 98.2701 153.109 101.718 147.694 102.277C145.23 102.311 143.217 102.271 141.142 100.724C139.704 99.6695 138.76 98.0721 138.532 96.3038C137.691 90.0641 143.831 86.4403 149.271 85.8494Z"/>
    <path fill="#FEFEFE"
          d="M114.404 168.004C120.33 167.251 124.942 179.209 115.431 183.935C110.204 184.631 106.554 173.993 110.448 170.405C112.089 168.893 112.235 168.883 114.404 168.004Z"/>
    <path fill="#FEFEFE"
          d="M199.682 38.8244C204.558 38.9008 205.761 41.2863 207.189 45.4845C206.431 48.7783 205.106 52.3994 201.94 54.0134C200.323 54.2473 199.648 54.479 198.159 53.5828C193.249 50.6287 193.432 39.9802 199.682 38.8244Z"/>
    <path fill="#FEFEFE"
          d="M155.258 60.2774C156.607 60.1824 157.768 60.4506 158.953 60.9284C164.128 63.0161 162.233 69.2959 158.205 71.39C157.117 71.9553 156.208 72.2577 155.121 72.6347C153.601 72.8012 151.68 72.4589 150.346 71.72C149.235 71.1101 148.422 70.0723 148.095 68.8476C146.795 63.9304 151.266 61.3661 155.258 60.2774Z"/>
    <path fill="#FEFEFE"
          d="M191.082 251.034C195.816 251.249 198.949 255.741 196.113 259.995C194.458 262.476 192.153 263.019 189.418 263.574C179.094 261.802 182.256 253.198 191.082 251.034Z"/>
    <path fill="#FEFEFE"
          d="M163.705 39.0283C172.001 38.5211 172.619 48.7916 164.07 50.0718C154.143 50.288 155.256 41.6672 163.705 39.0283Z"/>
    <path fill="#FEFEFE"
          d="M182.74 275.044C187.166 274.66 192.133 276.161 189.835 282.33C189.188 284.069 186.65 285.409 184.881 285.95C180.344 286.581 178.506 285.693 177.453 281.059C178.187 277.529 179.524 276.549 182.74 275.044Z"/>
    <path fill="#FEFEFE"
          d="M99.147 170.018C102.297 169.64 103.225 171.482 105.003 173.684C105.101 175.402 105.016 176.614 104.908 178.315C104.065 179.631 103.592 180.105 102.496 181.246C101.333 181.025 100.164 180.583 99.3977 179.669C96.5822 176.313 95.8843 173.141 99.147 170.018Z"/>
    <path fill="#FEFEFE"
          d="M214.813 39.935C219.435 40.4667 219.441 50.2625 213.735 51.2497C211.292 50.8626 209.668 49.3704 210.06 46.6809C210.487 43.7622 212.538 41.6514 214.813 39.935Z"/>
    <path fill="#FEFEFE"
          d="M223.655 45.8966C224.413 45.9936 225.854 46.949 226.279 47.5352C228.3 50.3188 225.269 53.5485 223.409 55.0045C218.289 55.5919 219.66 50.2196 221.698 47.8027C222.315 47.0713 222.937 46.5171 223.655 45.8966Z"/>
    <path fill="#FEFEFE"
          d="M90.4232 175.964C94.0081 175.792 95.1722 178.409 95.7106 181.518C95.2977 182.511 95.1094 183.617 94.1918 184.103C93.8711 184.149 93.5483 184.179 93.2245 184.192C89.1533 184.383 87.1555 179.316 90.4232 175.964Z"/>
    <path fill="#FEFEFE"
          d="M84.1272 181.913C86.4376 182.302 89.095 185.072 87.8651 187.521C87.5168 188.214 86.509 188.301 85.8112 188.485C83.806 188.179 82.7608 186.384 81.6599 184.873C82.4996 183.79 83.2126 182.934 84.1272 181.913Z"/>
    <path fill="#FEFEFE"
          d="M230.151 52.7745C235.27 53.278 233.041 57.0229 230.133 59.0524C229.52 59.123 229.365 59.0747 228.747 58.978C227.928 58.4957 227.609 57.3932 227.224 56.4842C228.111 54.676 228.389 53.6992 230.151 52.7745Z"/>
    <path fill="#FEFEFE"
          d="M78.221 189.806C81.6329 189.565 83.758 192.757 79.9914 195.157C77.1474 194.806 73.3932 190.807 78.221 189.806Z"/>
    <path fill="#FEFEFE"
          d="M236.294 60.021L237.76 59.9746C239.395 60.7099 239.469 61.9101 238.769 63.4687C238.216 64.7018 237.265 64.9567 236.09 65.3627C235.262 65.5186 234.598 65.1881 234.044 64.6013C233.124 62.4164 234.373 60.8947 236.294 60.021Z"/>
</svg>